<svg xmlns="http://www.w3.org/2000/svg" xmlns:xlink="http://www.w3.org/1999/xlink" width="500" zoomAndPan="magnify" viewBox="0 0 375 374.999991" height="500" preserveAspectRatio="xMidYMid meet" version="1.0"><defs><filter x="0%" y="0%" width="100%" height="100%" id="6f731264a0"><feColorMatrix values="0 0 0 0 1 0 0 0 0 1 0 0 0 0 1 0 0 0 1 0" color-interpolation-filters="sRGB"/></filter><g/><mask id="8af65cf480"><g filter="url(#6f731264a0)"><rect x="-37.5" width="450" fill="#000000" y="-37.499999" height="449.999989" fill-opacity="0.7"/></g></mask><clipPath id="135c8bdc17"><path d="M 8 7 L 165 7 L 165 151 L 8 151 Z M 8 7 " clip-rule="nonzero"/></clipPath><clipPath id="23eaa3731c"><path d="M 0.1875 22.292969 L 148.625 0.710938 L 169.453125 143.957031 L 21.011719 165.539062 Z M 0.1875 22.292969 " clip-rule="nonzero"/></clipPath><clipPath id="af89041f10"><path d="M 0.1875 22.292969 L 148.625 0.710938 L 169.453125 143.957031 L 21.011719 165.539062 Z M 0.1875 22.292969 " clip-rule="nonzero"/></clipPath><clipPath id="d75e8d8c16"><rect x="0" width="170" y="0" height="166"/></clipPath></defs><g mask="url(#8af65cf480)"><g transform="matrix(1, 0, 0, 1, 24, 64)"><g clip-path="url(#d75e8d8c16)"><g clip-path="url(#135c8bdc17)"><g clip-path="url(#23eaa3731c)"><g clip-path="url(#af89041f10)"><path fill="#aec0e0" d="M 51.53125 88.648438 C 45.671875 89.503906 40.230469 85.441406 39.375 79.578125 C 38.523438 73.71875 42.585938 68.277344 48.445312 67.425781 C 54.304688 66.574219 59.75 70.632812 60.601562 76.492188 C 61.453125 82.355469 57.394531 87.796875 51.53125 88.648438 Z M 88.5625 66.839844 L 86.386719 66.832031 C 83.292969 66.820312 80.453125 65.125 78.984375 62.402344 C 78.546875 61.585938 78.074219 60.792969 77.570312 60.019531 C 75.871094 57.425781 75.714844 54.109375 77.183594 51.375 L 78.214844 49.460938 C 78.621094 48.703125 78.414062 47.761719 77.722656 47.246094 L 71.609375 42.683594 C 70.917969 42.167969 69.957031 42.234375 69.34375 42.84375 L 67.800781 44.375 C 65.601562 46.566406 62.378906 47.359375 59.40625 46.46875 C 58.523438 46.203125 57.628906 45.976562 56.722656 45.789062 C 53.695312 45.15625 51.253906 42.917969 50.367188 39.953125 L 49.738281 37.871094 C 49.492188 37.046875 48.679688 36.527344 47.828125 36.652344 L 40.277344 37.75 C 39.425781 37.875 38.792969 38.605469 38.789062 39.464844 L 38.78125 41.640625 C 38.773438 44.730469 37.074219 47.574219 34.351562 49.039062 C 33.535156 49.480469 32.742188 49.953125 31.972656 50.457031 C 29.375 52.15625 26.0625 52.3125 23.328125 50.84375 L 21.410156 49.8125 C 20.652344 49.402344 19.710938 49.613281 19.199219 50.304688 L 14.632812 56.417969 C 14.121094 57.109375 14.1875 58.070312 14.792969 58.679688 L 16.328125 60.222656 C 18.515625 62.425781 19.308594 65.648438 18.421875 68.621094 C 18.15625 69.503906 17.929688 70.398438 17.742188 71.304688 C 17.109375 74.332031 14.867188 76.769531 11.90625 77.660156 L 9.824219 78.285156 C 9 78.535156 8.480469 79.347656 8.605469 80.199219 L 9.703125 87.75 C 9.828125 88.601562 10.554688 89.234375 11.414062 89.238281 L 13.589844 89.242188 C 16.683594 89.253906 19.523438 90.953125 20.992188 93.675781 C 21.433594 94.488281 21.90625 95.285156 22.410156 96.050781 C 24.109375 98.652344 24.265625 101.964844 22.792969 104.699219 L 21.761719 106.613281 C 21.355469 107.371094 21.566406 108.3125 22.253906 108.828125 L 28.371094 113.390625 C 29.058594 113.90625 30.023438 113.839844 30.632812 113.234375 L 32.175781 111.699219 C 34.378906 109.511719 37.597656 108.714844 40.574219 109.605469 C 41.453125 109.867188 42.347656 110.097656 43.257812 110.285156 C 46.285156 110.917969 48.722656 113.160156 49.613281 116.121094 L 50.238281 118.203125 C 50.484375 119.027344 51.300781 119.546875 52.148438 119.421875 L 59.703125 118.324219 C 60.554688 118.199219 61.183594 117.472656 61.1875 116.613281 L 61.195312 114.4375 C 61.203125 111.34375 62.902344 108.5 65.625 107.035156 C 66.441406 106.59375 67.234375 106.121094 68.003906 105.617188 C 70.601562 103.917969 73.917969 103.761719 76.648438 105.230469 L 78.566406 106.265625 C 79.324219 106.667969 80.265625 106.460938 80.78125 105.773438 L 85.34375 99.65625 C 85.859375 98.964844 85.789062 98.003906 85.183594 97.394531 L 83.648438 95.851562 C 81.460938 93.648438 80.667969 90.425781 81.558594 87.453125 C 81.820312 86.570312 82.046875 85.675781 82.238281 84.769531 C 82.871094 81.742188 85.109375 79.304688 88.070312 78.414062 L 90.15625 77.789062 C 90.976562 77.542969 91.496094 76.726562 91.371094 75.875 L 90.273438 68.324219 C 90.152344 67.472656 89.421875 66.839844 88.5625 66.839844 Z M 124.238281 119.777344 C 118.378906 120.628906 112.9375 116.570312 112.085938 110.707031 C 111.230469 104.847656 115.292969 99.402344 121.152344 98.550781 C 127.015625 97.699219 132.457031 101.761719 133.308594 107.621094 C 134.160156 113.484375 130.101562 118.925781 124.238281 119.777344 Z M 161.269531 97.964844 L 159.09375 97.957031 C 156.003906 97.949219 153.160156 96.25 151.691406 93.527344 C 151.253906 92.710938 150.777344 91.917969 150.277344 91.148438 C 148.578125 88.550781 148.421875 85.238281 149.890625 82.503906 L 150.921875 80.585938 C 151.328125 79.828125 151.121094 78.886719 150.429688 78.371094 L 144.316406 73.808594 C 143.625 73.296875 142.664062 73.363281 142.054688 73.96875 L 140.511719 75.503906 C 138.308594 77.691406 135.085938 78.484375 132.113281 77.597656 C 131.230469 77.332031 130.335938 77.105469 129.429688 76.917969 C 126.402344 76.285156 123.964844 74.042969 123.074219 71.082031 L 122.449219 69 C 122.199219 68.175781 121.386719 67.65625 120.535156 67.78125 L 112.984375 68.878906 C 112.132812 69 111.5 69.730469 111.496094 70.589844 L 111.492188 72.765625 C 111.480469 75.859375 109.78125 78.699219 107.058594 80.167969 C 106.246094 80.609375 105.449219 81.082031 104.679688 81.585938 C 102.082031 83.285156 98.769531 83.441406 96.035156 81.96875 L 94.117188 80.9375 C 93.363281 80.53125 92.417969 80.742188 91.90625 81.429688 L 87.34375 87.546875 C 86.828125 88.234375 86.894531 89.199219 87.5 89.808594 L 89.035156 91.351562 C 91.222656 93.554688 92.015625 96.773438 91.128906 99.75 C 90.863281 100.628906 90.636719 101.523438 90.449219 102.433594 C 89.816406 105.460938 87.574219 107.898438 84.613281 108.789062 L 82.53125 109.414062 C 81.707031 109.660156 81.1875 110.476562 81.3125 111.328125 L 82.410156 118.878906 C 82.535156 119.726562 83.261719 120.359375 84.121094 120.363281 L 86.296875 120.371094 C 89.390625 120.378906 92.230469 122.078125 93.699219 124.800781 C 94.140625 125.617188 94.613281 126.410156 95.117188 127.179688 C 96.816406 129.777344 96.972656 133.09375 95.503906 135.824219 L 94.472656 137.742188 C 94.0625 138.5 94.273438 139.441406 94.960938 139.957031 L 101.078125 144.519531 C 101.765625 145.03125 102.730469 144.964844 103.339844 144.359375 L 104.882812 142.824219 C 107.085938 140.636719 110.308594 139.84375 113.28125 140.734375 C 114.164062 140.996094 115.058594 141.222656 115.964844 141.414062 C 118.992188 142.046875 121.429688 144.285156 122.320312 147.246094 L 122.945312 149.332031 C 123.191406 150.152344 124.007812 150.671875 124.855469 150.546875 L 132.410156 149.449219 C 133.261719 149.328125 133.894531 148.597656 133.894531 147.738281 L 133.902344 145.5625 C 133.914062 142.46875 135.609375 139.628906 138.332031 138.160156 C 139.148438 137.722656 139.941406 137.25 140.710938 136.746094 C 143.308594 135.046875 146.625 134.886719 149.359375 136.359375 L 151.273438 137.390625 C 152.03125 137.796875 152.972656 137.585938 153.488281 136.898438 L 158.050781 130.785156 C 158.566406 130.09375 158.496094 129.132812 157.890625 128.523438 L 156.359375 126.976562 C 154.167969 124.777344 153.375 121.554688 154.265625 118.582031 C 154.527344 117.699219 154.753906 116.804688 154.945312 115.894531 C 155.578125 112.867188 157.816406 110.429688 160.78125 109.542969 L 162.863281 108.914062 C 163.6875 108.667969 164.203125 107.855469 164.082031 107.003906 L 162.984375 99.453125 C 162.859375 98.601562 162.128906 97.96875 161.269531 97.964844 Z M 107.300781 45.0625 C 102.878906 45.703125 98.773438 42.640625 98.128906 38.222656 C 97.488281 33.800781 100.550781 29.695312 104.972656 29.050781 C 109.394531 28.40625 113.5 31.472656 114.140625 35.894531 C 114.785156 40.3125 111.722656 44.417969 107.300781 45.0625 Z M 134.011719 28.964844 L 132.4375 28.957031 C 130.203125 28.953125 128.148438 27.722656 127.089844 25.757812 C 126.769531 25.167969 126.429688 24.59375 126.066406 24.039062 C 124.839844 22.160156 124.726562 19.765625 125.785156 17.792969 L 126.53125 16.40625 C 126.824219 15.859375 126.675781 15.179688 126.175781 14.808594 L 121.757812 11.507812 C 121.257812 11.136719 120.566406 11.1875 120.125 11.625 L 119.007812 12.734375 C 117.417969 14.316406 115.089844 14.886719 112.941406 14.246094 C 112.304688 14.054688 111.65625 13.890625 111 13.753906 C 108.8125 13.296875 107.050781 11.675781 106.410156 9.539062 L 105.957031 8.035156 C 105.777344 7.4375 105.1875 7.0625 104.574219 7.152344 L 99.117188 7.945312 C 98.503906 8.035156 98.046875 8.5625 98.042969 9.183594 L 98.039062 10.753906 C 98.03125 12.988281 96.804688 15.042969 94.835938 16.105469 C 94.246094 16.421875 93.675781 16.761719 93.117188 17.128906 C 91.242188 18.355469 88.84375 18.46875 86.871094 17.40625 L 85.488281 16.660156 C 84.9375 16.367188 84.257812 16.515625 83.886719 17.015625 L 80.589844 21.433594 C 80.21875 21.933594 80.265625 22.628906 80.703125 23.070312 L 81.8125 24.183594 C 83.394531 25.777344 83.96875 28.105469 83.324219 30.253906 C 83.136719 30.890625 82.96875 31.535156 82.832031 32.191406 C 82.375 34.378906 80.757812 36.140625 78.617188 36.785156 L 77.113281 37.238281 C 76.519531 37.414062 76.144531 38.003906 76.234375 38.617188 L 77.027344 44.074219 C 77.117188 44.691406 77.640625 45.148438 78.261719 45.148438 L 79.835938 45.152344 C 82.070312 45.160156 84.121094 46.390625 85.183594 48.355469 C 85.5 48.945312 85.84375 49.515625 86.207031 50.074219 C 87.433594 51.949219 87.546875 54.347656 86.488281 56.320312 L 85.742188 57.707031 C 85.445312 58.253906 85.597656 58.933594 86.097656 59.308594 L 90.515625 62.601562 C 91.011719 62.976562 91.707031 62.925781 92.148438 62.488281 L 93.265625 61.378906 C 94.855469 59.796875 97.183594 59.226562 99.332031 59.867188 C 99.96875 60.058594 100.617188 60.222656 101.273438 60.359375 C 103.460938 60.816406 105.21875 62.433594 105.863281 64.574219 L 106.316406 66.082031 C 106.496094 66.675781 107.085938 67.050781 107.699219 66.960938 L 113.15625 66.167969 C 113.769531 66.078125 114.226562 65.550781 114.226562 64.929688 L 114.234375 63.359375 C 114.242188 61.121094 115.46875 59.070312 117.4375 58.007812 C 118.023438 57.691406 118.597656 57.347656 119.15625 56.984375 C 121.03125 55.757812 123.425781 55.644531 125.402344 56.707031 L 126.785156 57.449219 C 127.335938 57.746094 128.015625 57.59375 128.386719 57.097656 L 131.683594 52.679688 C 132.054688 52.179688 132.003906 51.484375 131.570312 51.042969 L 130.457031 49.929688 C 128.878906 48.335938 128.304688 46.007812 128.945312 43.859375 C 129.136719 43.222656 129.300781 42.574219 129.4375 41.921875 C 129.894531 39.734375 131.515625 37.972656 133.65625 37.328125 L 135.160156 36.875 C 135.753906 36.699219 136.128906 36.109375 136.039062 35.496094 L 135.246094 30.039062 C 135.15625 29.421875 134.632812 28.964844 134.011719 28.964844 " fill-opacity="1" fill-rule="nonzero"/></g></g></g></g></g></g><g fill="#263652" fill-opacity="1"><g transform="translate(64.037971, 205.499987)"><g><path d="M 9.015625 -23.921875 C 10.015625 -25.671875 11.476562 -27.097656 13.40625 -28.203125 C 15.34375 -29.316406 17.546875 -29.875 20.015625 -29.875 C 22.660156 -29.875 25.035156 -29.25 27.140625 -28 C 29.253906 -26.75 30.914062 -24.988281 32.125 -22.71875 C 33.34375 -20.445312 33.953125 -17.8125 33.953125 -14.8125 C 33.953125 -11.84375 33.34375 -9.191406 32.125 -6.859375 C 30.914062 -4.535156 29.242188 -2.726562 27.109375 -1.4375 C 24.984375 -0.15625 22.617188 0.484375 20.015625 0.484375 C 17.472656 0.484375 15.242188 -0.0664062 13.328125 -1.171875 C 11.410156 -2.285156 9.972656 -3.703125 9.015625 -5.421875 L 9.015625 0 L 4.125 0 L 4.125 -39.6875 L 9.015625 -39.6875 Z M 28.96875 -14.8125 C 28.96875 -17.019531 28.519531 -18.945312 27.625 -20.59375 C 26.726562 -22.238281 25.519531 -23.488281 24 -24.34375 C 22.476562 -25.207031 20.804688 -25.640625 18.984375 -25.640625 C 17.203125 -25.640625 15.550781 -25.203125 14.03125 -24.328125 C 12.507812 -23.453125 11.289062 -22.179688 10.375 -20.515625 C 9.46875 -18.847656 9.015625 -16.925781 9.015625 -14.75 C 9.015625 -12.53125 9.46875 -10.585938 10.375 -8.921875 C 11.289062 -7.265625 12.507812 -6 14.03125 -5.125 C 15.550781 -4.25 17.203125 -3.8125 18.984375 -3.8125 C 20.804688 -3.8125 22.476562 -4.25 24 -5.125 C 25.519531 -6 26.726562 -7.265625 27.625 -8.921875 C 28.519531 -10.585938 28.96875 -12.550781 28.96875 -14.8125 Z M 28.96875 -14.8125 "/></g></g></g><g fill="#263652" fill-opacity="1"><g transform="translate(100.296354, 205.499987)"><g><path d="M 9.015625 -39.6875 L 9.015625 0 L 4.125 0 L 4.125 -39.6875 Z M 9.015625 -39.6875 "/></g></g></g><g fill="#263652" fill-opacity="1"><g transform="translate(113.490978, 205.499987)"><g><path d="M 30.203125 -29.390625 L 30.203125 0 L 25.3125 0 L 25.3125 -4.34375 C 24.382812 -2.84375 23.085938 -1.671875 21.421875 -0.828125 C 19.765625 0.00390625 17.9375 0.421875 15.9375 0.421875 C 13.644531 0.421875 11.585938 -0.046875 9.765625 -0.984375 C 7.941406 -1.929688 6.5 -3.351562 5.4375 -5.25 C 4.382812 -7.144531 3.859375 -9.453125 3.859375 -12.171875 L 3.859375 -29.390625 L 8.6875 -29.390625 L 8.6875 -12.8125 C 8.6875 -9.914062 9.421875 -7.691406 10.890625 -6.140625 C 12.359375 -4.585938 14.359375 -3.8125 16.890625 -3.8125 C 19.503906 -3.8125 21.5625 -4.613281 23.0625 -6.21875 C 24.5625 -7.832031 25.3125 -10.175781 25.3125 -13.25 L 25.3125 -29.390625 Z M 30.203125 -29.390625 "/></g></g></g><g fill="#263652" fill-opacity="1"><g transform="translate(147.827028, 205.499987)"><g><path d="M 30.421875 -37.65625 L 30.421875 -30.3125 L 20.4375 -30.3125 L 20.4375 0 L 11.265625 0 L 11.265625 -30.3125 L 1.28125 -30.3125 L 1.28125 -37.65625 Z M 30.421875 -37.65625 "/></g></g></g><g fill="#263652" fill-opacity="1"><g transform="translate(179.526302, 205.499987)"><g><path d="M 1.5 -15.015625 C 1.5 -18.085938 2.078125 -20.785156 3.234375 -23.109375 C 4.398438 -25.441406 5.984375 -27.234375 7.984375 -28.484375 C 9.992188 -29.734375 12.234375 -30.359375 14.703125 -30.359375 C 16.804688 -30.359375 18.65625 -29.925781 20.25 -29.0625 C 21.84375 -28.207031 23.066406 -27.082031 23.921875 -25.6875 L 23.921875 -29.9375 L 33.09375 -29.9375 L 33.09375 0 L 23.921875 0 L 23.921875 -4.234375 C 23.023438 -2.835938 21.78125 -1.710938 20.1875 -0.859375 C 18.601562 -0.00390625 16.753906 0.421875 14.640625 0.421875 C 12.210938 0.421875 9.992188 -0.207031 7.984375 -1.46875 C 5.984375 -2.738281 4.398438 -4.546875 3.234375 -6.890625 C 2.078125 -9.234375 1.5 -11.941406 1.5 -15.015625 Z M 23.921875 -14.96875 C 23.921875 -17.257812 23.285156 -19.066406 22.015625 -20.390625 C 20.742188 -21.710938 19.195312 -22.375 17.375 -22.375 C 15.550781 -22.375 14.003906 -21.71875 12.734375 -20.40625 C 11.460938 -19.101562 10.828125 -17.304688 10.828125 -15.015625 C 10.828125 -12.734375 11.460938 -10.921875 12.734375 -9.578125 C 14.003906 -8.234375 15.550781 -7.5625 17.375 -7.5625 C 19.195312 -7.5625 20.742188 -8.222656 22.015625 -9.546875 C 23.285156 -10.867188 23.921875 -12.675781 23.921875 -14.96875 Z M 23.921875 -14.96875 "/></g></g></g><g fill="#263652" fill-opacity="1"><g transform="translate(215.9456, 205.499987)"><g><path d="M 12.5 -25.6875 C 13.394531 -27.082031 14.628906 -28.207031 16.203125 -29.0625 C 17.773438 -29.925781 19.613281 -30.359375 21.71875 -30.359375 C 24.1875 -30.359375 26.421875 -29.734375 28.421875 -28.484375 C 30.429688 -27.234375 32.015625 -25.441406 33.171875 -23.109375 C 34.335938 -20.785156 34.921875 -18.085938 34.921875 -15.015625 C 34.921875 -11.941406 34.335938 -9.234375 33.171875 -6.890625 C 32.015625 -4.546875 30.429688 -2.738281 28.421875 -1.46875 C 26.421875 -0.207031 24.1875 0.421875 21.71875 0.421875 C 19.644531 0.421875 17.8125 -0.00390625 16.21875 -0.859375 C 14.632812 -1.710938 13.394531 -2.820312 12.5 -4.1875 L 12.5 14.265625 L 3.328125 14.265625 L 3.328125 -29.9375 L 12.5 -29.9375 Z M 25.59375 -15.015625 C 25.59375 -17.304688 24.957031 -19.101562 23.6875 -20.40625 C 22.414062 -21.71875 20.847656 -22.375 18.984375 -22.375 C 17.160156 -22.375 15.613281 -21.710938 14.34375 -20.390625 C 13.070312 -19.066406 12.4375 -17.257812 12.4375 -14.96875 C 12.4375 -12.675781 13.070312 -10.867188 14.34375 -9.546875 C 15.613281 -8.222656 17.160156 -7.5625 18.984375 -7.5625 C 20.804688 -7.5625 22.363281 -8.234375 23.65625 -9.578125 C 24.945312 -10.921875 25.59375 -12.734375 25.59375 -15.015625 Z M 25.59375 -15.015625 "/></g></g></g><g fill="#263652" fill-opacity="1"><g transform="translate(252.364898, 205.499987)"><g><path d="M 31.546875 -15.453125 C 31.546875 -14.585938 31.488281 -13.691406 31.375 -12.765625 L 10.625 -12.765625 C 10.757812 -10.910156 11.351562 -9.488281 12.40625 -8.5 C 13.46875 -7.519531 14.769531 -7.03125 16.3125 -7.03125 C 18.59375 -7.03125 20.179688 -7.992188 21.078125 -9.921875 L 30.84375 -9.921875 C 30.34375 -7.953125 29.4375 -6.179688 28.125 -4.609375 C 26.820312 -3.035156 25.1875 -1.800781 23.21875 -0.90625 C 21.257812 -0.0195312 19.0625 0.421875 16.625 0.421875 C 13.695312 0.421875 11.085938 -0.203125 8.796875 -1.453125 C 6.503906 -2.703125 4.710938 -4.488281 3.421875 -6.8125 C 2.140625 -9.132812 1.5 -11.851562 1.5 -14.96875 C 1.5 -18.070312 2.132812 -20.785156 3.40625 -23.109375 C 4.675781 -25.441406 6.453125 -27.234375 8.734375 -28.484375 C 11.023438 -29.734375 13.65625 -30.359375 16.625 -30.359375 C 19.519531 -30.359375 22.09375 -29.75 24.34375 -28.53125 C 26.601562 -27.320312 28.367188 -25.585938 29.640625 -23.328125 C 30.910156 -21.078125 31.546875 -18.453125 31.546875 -15.453125 Z M 22.15625 -17.859375 C 22.15625 -19.429688 21.617188 -20.679688 20.546875 -21.609375 C 19.472656 -22.546875 18.128906 -23.015625 16.515625 -23.015625 C 14.984375 -23.015625 13.6875 -22.566406 12.625 -21.671875 C 11.570312 -20.773438 10.921875 -19.503906 10.671875 -17.859375 Z M 22.15625 -17.859375 "/></g></g></g><g fill="#263652" fill-opacity="1"><g transform="translate(285.405144, 205.499987)"><g><path d="M 22.375 -50.53125 L 7.671875 9.125 L 2.84375 9.125 L 17.484375 -50.53125 Z M 22.375 -50.53125 "/></g></g></g></svg>