<svg xmlns="http://www.w3.org/2000/svg" xmlns:xlink="http://www.w3.org/1999/xlink" width="500" zoomAndPan="magnify" viewBox="0 0 375 374.999991" height="500" preserveAspectRatio="xMidYMid meet" version="1.0"><defs><filter x="0%" y="0%" width="100%" height="100%" id="563e08d428"><feColorMatrix values="0 0 0 0 1 0 0 0 0 1 0 0 0 0 1 0 0 0 1 0" color-interpolation-filters="sRGB"/></filter><g/><mask id="b0b64790b6"><g filter="url(#563e08d428)"><rect x="-37.5" width="450" fill="#000000" y="-37.499999" height="449.999989" fill-opacity="0.74"/></g></mask><clipPath id="09fa7e0317"><path d="M 10 8 L 165 8 L 165 148 L 10 148 Z M 10 8 " clip-rule="nonzero"/></clipPath><clipPath id="565ac82b7d"><path d="M 0.605469 26.691406 L 145.195312 0.179688 L 170.761719 139.605469 L 26.171875 166.117188 Z M 0.605469 26.691406 " clip-rule="nonzero"/></clipPath><clipPath id="bc5f5390c6"><path d="M 0.605469 26.691406 L 145.195312 0.179688 L 170.761719 139.605469 L 26.171875 166.117188 Z M 0.605469 26.691406 " clip-rule="nonzero"/></clipPath><clipPath id="7165c7bcad"><rect x="0" width="172" y="0" height="167"/></clipPath></defs><g mask="url(#b0b64790b6)"><g transform="matrix(1, 0, 0, 1, 44, 99)"><g clip-path="url(#7165c7bcad)"><g clip-path="url(#09fa7e0317)"><g clip-path="url(#565ac82b7d)"><g clip-path="url(#bc5f5390c6)"><path fill="#aec0e0" d="M 53.277344 89.800781 C 47.570312 90.847656 42.097656 87.070312 41.050781 81.363281 C 40.003906 75.65625 43.78125 70.179688 49.488281 69.132812 C 55.195312 68.085938 60.671875 71.867188 61.71875 77.570312 C 62.761719 83.277344 58.984375 88.753906 53.277344 89.800781 Z M 88.742188 67.105469 L 86.613281 67.179688 C 83.582031 67.28125 80.742188 65.722656 79.207031 63.109375 C 78.746094 62.328125 78.253906 61.566406 77.730469 60.832031 C 75.976562 58.351562 75.703125 55.109375 77.042969 52.382812 L 77.980469 50.46875 C 78.351562 49.710938 78.113281 48.796875 77.421875 48.316406 L 71.269531 44.070312 C 70.574219 43.59375 69.636719 43.695312 69.058594 44.308594 L 67.605469 45.867188 C 65.527344 48.089844 62.402344 48.984375 59.457031 48.21875 C 58.585938 47.992188 57.703125 47.804688 56.804688 47.652344 C 53.820312 47.144531 51.351562 45.039062 50.371094 42.171875 L 49.683594 40.152344 C 49.414062 39.355469 48.597656 38.878906 47.769531 39.03125 L 40.414062 40.378906 C 39.585938 40.53125 38.996094 41.265625 39.023438 42.109375 L 39.09375 44.238281 C 39.195312 47.265625 37.636719 50.109375 35.023438 51.644531 C 34.242188 52.105469 33.480469 52.597656 32.746094 53.117188 C 30.265625 54.875 27.027344 55.148438 24.296875 53.808594 L 22.382812 52.867188 C 21.625 52.496094 20.710938 52.738281 20.234375 53.429688 L 15.988281 59.582031 C 15.507812 60.277344 15.609375 61.214844 16.226562 61.789062 L 17.785156 63.246094 C 20.003906 65.324219 20.898438 68.449219 20.136719 71.390625 C 19.910156 72.265625 19.71875 73.148438 19.566406 74.042969 C 19.058594 77.03125 16.953125 79.5 14.085938 80.476562 L 12.070312 81.167969 C 11.273438 81.4375 10.792969 82.253906 10.945312 83.082031 L 12.292969 90.433594 C 12.445312 91.265625 13.183594 91.855469 14.023438 91.828125 L 16.152344 91.757812 C 19.183594 91.652344 22.027344 93.214844 23.5625 95.824219 C 24.023438 96.609375 24.511719 97.367188 25.035156 98.101562 C 26.792969 100.585938 27.066406 103.824219 25.726562 106.554688 L 24.785156 108.46875 C 24.414062 109.222656 24.652344 110.136719 25.34375 110.617188 L 31.5 114.863281 C 32.191406 115.339844 33.132812 115.238281 33.707031 114.625 L 35.164062 113.066406 C 37.238281 110.84375 40.363281 109.949219 43.308594 110.714844 C 44.179688 110.941406 45.066406 111.128906 45.960938 111.28125 C 48.945312 111.792969 51.414062 113.898438 52.394531 116.765625 L 53.082031 118.78125 C 53.355469 119.578125 54.167969 120.058594 54.996094 119.90625 L 62.351562 118.558594 C 63.179688 118.40625 63.773438 117.667969 63.742188 116.828125 L 63.671875 114.699219 C 63.570312 111.667969 65.128906 108.824219 67.742188 107.289062 C 68.523438 106.828125 69.285156 106.335938 70.019531 105.816406 C 72.5 104.058594 75.738281 103.785156 78.46875 105.125 L 80.382812 106.066406 C 81.140625 106.4375 82.054688 106.199219 82.53125 105.503906 L 86.777344 99.351562 C 87.257812 98.660156 87.15625 97.71875 86.539062 97.144531 L 84.984375 95.6875 C 82.761719 93.613281 81.867188 90.488281 82.628906 87.542969 C 82.855469 86.671875 83.046875 85.785156 83.199219 84.890625 C 83.707031 81.902344 85.8125 79.4375 88.679688 78.457031 L 90.695312 77.769531 C 91.496094 77.496094 91.972656 76.683594 91.820312 75.851562 L 90.472656 68.5 C 90.320312 67.671875 89.582031 67.078125 88.742188 67.105469 Z M 125.585938 117.644531 C 119.878906 118.6875 114.40625 114.910156 113.359375 109.203125 C 112.3125 103.496094 116.089844 98.023438 121.796875 96.976562 C 127.503906 95.929688 132.980469 99.707031 134.027344 105.414062 C 135.074219 111.121094 131.292969 116.597656 125.585938 117.644531 Z M 161.050781 94.949219 L 158.921875 95.019531 C 155.894531 95.125 153.050781 93.5625 151.511719 90.949219 C 151.054688 90.167969 150.5625 89.410156 150.039062 88.671875 C 148.285156 86.191406 148.011719 82.953125 149.351562 80.222656 L 150.289062 78.308594 C 150.660156 77.554688 150.421875 76.636719 149.730469 76.160156 L 143.578125 71.914062 C 142.882812 71.433594 141.945312 71.535156 141.367188 72.152344 L 139.914062 73.710938 C 137.835938 75.929688 134.710938 76.824219 131.765625 76.0625 C 130.894531 75.835938 130.011719 75.648438 129.117188 75.492188 C 126.128906 74.984375 123.660156 72.878906 122.683594 70.011719 L 121.996094 67.996094 C 121.722656 67.199219 120.90625 66.71875 120.078125 66.871094 L 112.722656 68.21875 C 111.894531 68.371094 111.304688 69.109375 111.332031 69.949219 L 111.402344 72.078125 C 111.503906 75.109375 109.945312 77.953125 107.335938 79.488281 C 106.550781 79.949219 105.792969 80.441406 105.054688 80.960938 C 102.574219 82.71875 99.335938 82.992188 96.605469 81.648438 L 94.691406 80.710938 C 93.9375 80.339844 93.019531 80.578125 92.542969 81.269531 L 88.296875 87.421875 C 87.816406 88.117188 87.917969 89.058594 88.535156 89.632812 L 90.09375 91.089844 C 92.3125 93.164062 93.207031 96.289062 92.445312 99.234375 C 92.21875 100.105469 92.027344 100.992188 91.875 101.886719 C 91.367188 104.871094 89.261719 107.339844 86.394531 108.320312 L 84.378906 109.007812 C 83.582031 109.28125 83.101562 110.09375 83.253906 110.925781 L 84.601562 118.277344 C 84.753906 119.105469 85.492188 119.699219 86.332031 119.671875 L 88.464844 119.597656 C 91.492188 119.496094 94.335938 121.054688 95.871094 123.667969 C 96.332031 124.449219 96.820312 125.210938 97.34375 125.945312 C 99.101562 128.425781 99.375 131.667969 98.035156 134.394531 L 97.09375 136.308594 C 96.722656 137.066406 96.960938 137.980469 97.65625 138.457031 L 103.808594 142.703125 C 104.5 143.183594 105.441406 143.082031 106.015625 142.46875 L 107.472656 140.910156 C 109.546875 138.6875 112.675781 137.792969 115.617188 138.554688 C 116.488281 138.78125 117.375 138.972656 118.269531 139.125 C 121.257812 139.632812 123.722656 141.738281 124.703125 144.605469 L 125.390625 146.625 C 125.664062 147.421875 126.476562 147.898438 127.304688 147.746094 L 134.660156 146.398438 C 135.488281 146.246094 136.082031 145.511719 136.054688 144.667969 L 135.980469 142.539062 C 135.878906 139.507812 137.4375 136.667969 140.050781 135.132812 C 140.832031 134.671875 141.59375 134.179688 142.328125 133.660156 C 144.808594 131.902344 148.050781 131.625 150.777344 132.96875 L 152.691406 133.90625 C 153.449219 134.28125 154.363281 134.039062 154.84375 133.347656 L 159.089844 127.195312 C 159.566406 126.5 159.464844 125.5625 158.847656 124.984375 L 157.292969 123.53125 C 155.070312 121.453125 154.175781 118.328125 154.9375 115.382812 C 155.164062 114.511719 155.355469 113.625 155.507812 112.730469 C 156.015625 109.746094 158.121094 107.277344 160.988281 106.300781 L 163.007812 105.609375 C 163.804688 105.339844 164.28125 104.523438 164.128906 103.695312 L 162.78125 96.339844 C 162.628906 95.511719 161.894531 94.917969 161.050781 94.949219 Z M 106.296875 45.109375 C 101.992188 45.898438 97.863281 43.046875 97.074219 38.742188 C 96.285156 34.4375 99.132812 30.308594 103.441406 29.519531 C 107.746094 28.726562 111.875 31.578125 112.664062 35.886719 C 113.453125 40.1875 110.605469 44.320312 106.296875 45.109375 Z M 131.863281 28.382812 L 130.324219 28.433594 C 128.136719 28.507812 126.082031 27.378906 124.972656 25.492188 C 124.640625 24.925781 124.285156 24.378906 123.90625 23.847656 C 122.640625 22.054688 122.441406 19.714844 123.410156 17.742188 L 124.089844 16.359375 C 124.355469 15.8125 124.183594 15.152344 123.683594 14.804688 L 119.238281 11.738281 C 118.734375 11.390625 118.058594 11.464844 117.640625 11.910156 L 116.589844 13.035156 C 115.089844 14.640625 112.832031 15.285156 110.703125 14.734375 C 110.074219 14.570312 109.433594 14.433594 108.789062 14.324219 C 106.628906 13.957031 104.847656 12.433594 104.140625 10.363281 L 103.640625 8.90625 C 103.445312 8.328125 102.855469 7.984375 102.257812 8.09375 L 96.941406 9.066406 C 96.34375 9.175781 95.917969 9.710938 95.9375 10.320312 L 95.988281 11.855469 C 96.0625 14.042969 94.9375 16.101562 93.046875 17.210938 C 92.484375 17.542969 91.933594 17.898438 91.402344 18.273438 C 89.609375 19.542969 87.269531 19.742188 85.296875 18.773438 L 83.914062 18.09375 C 83.367188 17.824219 82.707031 17.996094 82.359375 18.5 L 79.292969 22.945312 C 78.945312 23.445312 79.019531 24.125 79.464844 24.539062 L 80.589844 25.59375 C 82.195312 27.09375 82.839844 29.351562 82.289062 31.476562 C 82.125 32.109375 81.988281 32.746094 81.878906 33.394531 C 81.511719 35.550781 79.992188 37.335938 77.917969 38.042969 L 76.460938 38.539062 C 75.882812 38.738281 75.539062 39.328125 75.648438 39.925781 L 76.625 45.238281 C 76.734375 45.835938 77.265625 46.265625 77.875 46.246094 L 79.414062 46.191406 C 81.601562 46.117188 83.65625 47.246094 84.765625 49.132812 C 85.097656 49.699219 85.453125 50.246094 85.828125 50.78125 C 87.097656 52.570312 87.296875 54.914062 86.328125 56.886719 L 85.648438 58.269531 C 85.378906 58.816406 85.554688 59.476562 86.054688 59.824219 L 90.5 62.890625 C 91 63.234375 91.679688 63.164062 92.097656 62.71875 L 93.148438 61.59375 C 94.648438 59.988281 96.90625 59.34375 99.035156 59.890625 C 99.664062 60.054688 100.304688 60.191406 100.949219 60.304688 C 103.109375 60.671875 104.890625 62.191406 105.597656 64.265625 L 106.09375 65.722656 C 106.292969 66.296875 106.882812 66.644531 107.480469 66.535156 L 112.796875 65.558594 C 113.394531 65.449219 113.820312 64.917969 113.800781 64.308594 L 113.75 62.769531 C 113.675781 60.582031 114.800781 58.527344 116.691406 57.417969 C 117.253906 57.085938 117.804688 56.730469 118.335938 56.351562 C 120.128906 55.082031 122.46875 54.886719 124.441406 55.855469 L 125.824219 56.53125 C 126.371094 56.800781 127.03125 56.628906 127.378906 56.128906 L 130.445312 51.683594 C 130.792969 51.179688 130.71875 50.503906 130.273438 50.085938 L 129.148438 49.035156 C 127.542969 47.535156 126.898438 45.273438 127.445312 43.148438 C 127.613281 42.515625 127.75 41.878906 127.859375 41.230469 C 128.226562 39.074219 129.746094 37.289062 131.820312 36.582031 L 133.277344 36.085938 C 133.855469 35.890625 134.199219 35.300781 134.089844 34.703125 L 133.113281 29.386719 C 133.003906 28.789062 132.472656 28.359375 131.863281 28.382812 " fill-opacity="1" fill-rule="nonzero"/></g></g></g></g></g></g><g fill="#263652" fill-opacity="1"><g transform="translate(58.818747, 244.752903)"><g><path d="M 9.90625 -26.3125 C 11.007812 -28.238281 12.625 -29.8125 14.75 -31.03125 C 16.875 -32.25 19.289062 -32.859375 22 -32.859375 C 24.914062 -32.859375 27.53125 -32.171875 29.84375 -30.796875 C 32.164062 -29.421875 33.992188 -27.484375 35.328125 -24.984375 C 36.671875 -22.484375 37.34375 -19.582031 37.34375 -16.28125 C 37.34375 -13.019531 36.671875 -10.109375 35.328125 -7.546875 C 33.992188 -4.992188 32.15625 -3.007812 29.8125 -1.59375 C 27.476562 -0.175781 24.875 0.53125 22 0.53125 C 19.207031 0.53125 16.757812 -0.078125 14.65625 -1.296875 C 12.550781 -2.515625 10.96875 -4.066406 9.90625 -5.953125 L 9.90625 0 L 4.546875 0 L 4.546875 -43.65625 L 9.90625 -43.65625 Z M 31.859375 -16.28125 C 31.859375 -18.71875 31.363281 -20.84375 30.375 -22.65625 C 29.394531 -24.46875 28.066406 -25.84375 26.390625 -26.78125 C 24.722656 -27.726562 22.890625 -28.203125 20.890625 -28.203125 C 18.921875 -28.203125 17.097656 -27.71875 15.421875 -26.75 C 13.753906 -25.789062 12.414062 -24.394531 11.40625 -22.5625 C 10.40625 -20.738281 9.90625 -18.625 9.90625 -16.21875 C 9.90625 -13.78125 10.40625 -11.644531 11.40625 -9.8125 C 12.414062 -7.988281 13.753906 -6.59375 15.421875 -5.625 C 17.097656 -4.664062 18.921875 -4.1875 20.890625 -4.1875 C 22.890625 -4.1875 24.722656 -4.664062 26.390625 -5.625 C 28.066406 -6.59375 29.394531 -7.988281 30.375 -9.8125 C 31.363281 -11.644531 31.859375 -13.800781 31.859375 -16.28125 Z M 31.859375 -16.28125 "/></g></g></g><g fill="#263652" fill-opacity="1"><g transform="translate(98.697433, 244.752903)"><g><path d="M 9.90625 -43.65625 L 9.90625 0 L 4.546875 0 L 4.546875 -43.65625 Z M 9.90625 -43.65625 "/></g></g></g><g fill="#263652" fill-opacity="1"><g transform="translate(113.209502, 244.752903)"><g><path d="M 33.21875 -32.328125 L 33.21875 0 L 27.84375 0 L 27.84375 -4.78125 C 26.820312 -3.125 25.394531 -1.832031 23.5625 -0.90625 C 21.738281 0.0078125 19.722656 0.46875 17.515625 0.46875 C 15.003906 0.46875 12.742188 -0.0507812 10.734375 -1.09375 C 8.734375 -2.132812 7.148438 -3.695312 5.984375 -5.78125 C 4.828125 -7.863281 4.25 -10.398438 4.25 -13.390625 L 4.25 -32.328125 L 9.5625 -32.328125 L 9.5625 -14.09375 C 9.5625 -10.914062 10.363281 -8.46875 11.96875 -6.75 C 13.582031 -5.039062 15.785156 -4.1875 18.578125 -4.1875 C 21.453125 -4.1875 23.710938 -5.070312 25.359375 -6.84375 C 27.015625 -8.613281 27.84375 -11.191406 27.84375 -14.578125 L 27.84375 -32.328125 Z M 33.21875 -32.328125 "/></g></g></g><g fill="#263652" fill-opacity="1"><g transform="translate(150.974991, 244.752903)"><g><path d="M 33.453125 -41.421875 L 33.453125 -33.328125 L 22.484375 -33.328125 L 22.484375 0 L 12.390625 0 L 12.390625 -33.328125 L 1.421875 -33.328125 L 1.421875 -41.421875 Z M 33.453125 -41.421875 "/></g></g></g><g fill="#263652" fill-opacity="1"><g transform="translate(185.839345, 244.752903)"><g><path d="M 1.65625 -16.515625 C 1.65625 -19.898438 2.289062 -22.867188 3.5625 -25.421875 C 4.84375 -27.984375 6.582031 -29.953125 8.78125 -31.328125 C 10.988281 -32.703125 13.453125 -33.390625 16.171875 -33.390625 C 18.484375 -33.390625 20.515625 -32.914062 22.265625 -31.96875 C 24.015625 -31.03125 25.363281 -29.796875 26.3125 -28.265625 L 26.3125 -32.921875 L 36.40625 -32.921875 L 36.40625 0 L 26.3125 0 L 26.3125 -4.65625 C 25.332031 -3.125 23.96875 -1.882812 22.21875 -0.9375 C 20.46875 0 18.429688 0.46875 16.109375 0.46875 C 13.429688 0.46875 10.988281 -0.226562 8.78125 -1.625 C 6.582031 -3.019531 4.84375 -5.003906 3.5625 -7.578125 C 2.289062 -10.160156 1.65625 -13.140625 1.65625 -16.515625 Z M 26.3125 -16.46875 C 26.3125 -18.976562 25.613281 -20.960938 24.21875 -22.421875 C 22.820312 -23.878906 21.117188 -24.609375 19.109375 -24.609375 C 17.109375 -24.609375 15.410156 -23.890625 14.015625 -22.453125 C 12.617188 -21.015625 11.921875 -19.035156 11.921875 -16.515625 C 11.921875 -14.003906 12.617188 -12.007812 14.015625 -10.53125 C 15.410156 -9.050781 17.109375 -8.3125 19.109375 -8.3125 C 21.117188 -8.3125 22.820312 -9.039062 24.21875 -10.5 C 25.613281 -11.957031 26.3125 -13.945312 26.3125 -16.46875 Z M 26.3125 -16.46875 "/></g></g></g><g fill="#263652" fill-opacity="1"><g transform="translate(225.895014, 244.752903)"><g><path d="M 13.75 -28.265625 C 14.726562 -29.796875 16.082031 -31.03125 17.8125 -31.96875 C 19.539062 -32.914062 21.566406 -33.390625 23.890625 -33.390625 C 26.609375 -33.390625 29.066406 -32.703125 31.265625 -31.328125 C 33.472656 -29.953125 35.210938 -27.984375 36.484375 -25.421875 C 37.765625 -22.867188 38.40625 -19.898438 38.40625 -16.515625 C 38.40625 -13.140625 37.765625 -10.160156 36.484375 -7.578125 C 35.210938 -5.003906 33.472656 -3.019531 31.265625 -1.625 C 29.066406 -0.226562 26.609375 0.46875 23.890625 0.46875 C 21.609375 0.46875 19.59375 0 17.84375 -0.9375 C 16.09375 -1.882812 14.726562 -3.109375 13.75 -4.609375 L 13.75 15.6875 L 3.65625 15.6875 L 3.65625 -32.921875 L 13.75 -32.921875 Z M 28.140625 -16.515625 C 28.140625 -19.035156 27.441406 -21.015625 26.046875 -22.453125 C 24.648438 -23.890625 22.929688 -24.609375 20.890625 -24.609375 C 18.878906 -24.609375 17.175781 -23.878906 15.78125 -22.421875 C 14.382812 -20.960938 13.6875 -18.976562 13.6875 -16.46875 C 13.6875 -13.945312 14.382812 -11.957031 15.78125 -10.5 C 17.175781 -9.039062 18.878906 -8.3125 20.890625 -8.3125 C 22.890625 -8.3125 24.597656 -9.050781 26.015625 -10.53125 C 27.429688 -12.007812 28.140625 -14.003906 28.140625 -16.515625 Z M 28.140625 -16.515625 "/></g></g></g><g fill="#263652" fill-opacity="1"><g transform="translate(265.950683, 244.752903)"><g><path d="M 34.6875 -16.984375 C 34.6875 -16.046875 34.628906 -15.066406 34.515625 -14.046875 L 11.6875 -14.046875 C 11.84375 -11.992188 12.5 -10.425781 13.65625 -9.34375 C 14.820312 -8.269531 16.25 -7.734375 17.9375 -7.734375 C 20.457031 -7.734375 22.207031 -8.796875 23.1875 -10.921875 L 33.921875 -10.921875 C 33.367188 -8.753906 32.375 -6.804688 30.9375 -5.078125 C 29.507812 -3.347656 27.710938 -1.988281 25.546875 -1 C 23.378906 -0.0195312 20.960938 0.46875 18.296875 0.46875 C 15.066406 0.46875 12.191406 -0.21875 9.671875 -1.59375 C 7.160156 -2.96875 5.195312 -4.929688 3.78125 -7.484375 C 2.363281 -10.046875 1.65625 -13.039062 1.65625 -16.46875 C 1.65625 -19.882812 2.351562 -22.867188 3.75 -25.421875 C 5.144531 -27.984375 7.097656 -29.953125 9.609375 -31.328125 C 12.128906 -32.703125 15.023438 -33.390625 18.296875 -33.390625 C 21.472656 -33.390625 24.300781 -32.71875 26.78125 -31.375 C 29.257812 -30.039062 31.195312 -28.132812 32.59375 -25.65625 C 33.988281 -23.1875 34.6875 -20.296875 34.6875 -16.984375 Z M 24.359375 -19.640625 C 24.359375 -21.378906 23.769531 -22.757812 22.59375 -23.78125 C 21.414062 -24.800781 19.941406 -25.3125 18.171875 -25.3125 C 16.484375 -25.3125 15.054688 -24.816406 13.890625 -23.828125 C 12.734375 -22.847656 12.015625 -21.453125 11.734375 -19.640625 Z M 24.359375 -19.640625 "/></g></g></g><g fill="#263652" fill-opacity="1"><g transform="translate(302.299204, 244.752903)"><g><path d="M 24.609375 -55.578125 L 8.4375 10.03125 L 3.125 10.03125 L 19.234375 -55.578125 Z M 24.609375 -55.578125 "/></g></g></g></svg>